<?xml version="1.0" standalone="no"?>
<!DOCTYPE svg PUBLIC "-//W3C//DTD SVG 20010904//EN"
 "http://www.w3.org/TR/2001/REC-SVG-20010904/DTD/svg10.dtd">
<svg version="1.0" xmlns="http://www.w3.org/2000/svg"
 width="512.000000pt" height="512.000000pt" viewBox="0 0 512.000000 512.000000"
 preserveAspectRatio="xMidYMid meet">

<g transform="translate(0.000000,512.000000) scale(0.100000,-0.100000)"
fill="#171717" stroke="none">
<path d="M2215 4661 c-71 -34 -102 -66 -223 -227 -127 -170 -117 -164 -273
-164 -201 0 -273 -23 -356 -112 -81 -88 -78 -64 -78 -753 l0 -610 27 -51 c40
-76 70 -107 140 -145 l63 -34 1045 0 1045 0 63 34 c70 38 100 69 140 145 l27
51 0 615 0 615 -24 53 c-29 65 -113 144 -178 167 -34 13 -94 19 -209 24 -143
5 -165 8 -184 26 -13 11 -63 74 -113 140 -114 153 -150 190 -212 223 l-50 27
-295 3 -295 3 -60 -30z m605 -194 c14 -7 77 -81 141 -166 175 -232 195 -243
434 -249 119 -3 166 -8 183 -19 51 -32 52 -41 52 -624 0 -472 -2 -545 -16
-574 -32 -68 24 -65 -1054 -65 -1078 0 -1022 -3 -1054 65 -14 29 -16 102 -16
574 0 583 1 592 52 624 17 11 64 16 183 19 239 6 259 17 434 249 64 85 127
159 141 166 18 9 92 13 260 13 168 0 242 -4 260 -13z"/>
<path d="M2421 4034 c-131 -35 -266 -141 -328 -260 -190 -358 65 -784 469
-784 143 0 271 53 373 155 103 103 155 229 155 375 0 242 -163 454 -395 515
-73 19 -202 18 -274 -1z m290 -235 c67 -36 98 -68 137 -143 22 -43 26 -64 26
-136 1 -78 -2 -90 -33 -148 -38 -70 -70 -100 -145 -140 -43 -22 -64 -26 -136
-26 -72 0 -93 4 -136 26 -75 40 -107 70 -145 140 -31 58 -34 70 -33 148 0 100
24 160 89 225 100 100 249 121 376 54z"/>
<path d="M635 4032 c-36 -11 -67 -33 -110 -77 -103 -102 -95 21 -95 -1421 l0
-1253 -184 -3 c-179 -3 -185 -4 -210 -27 -51 -48 -40 -142 20 -170 36 -16
4972 -16 5008 0 60 28 71 122 20 170 -25 23 -31 24 -210 27 l-184 3 -2 1272
-3 1272 -27 50 c-54 102 -148 165 -260 173 -64 4 -68 3 -97 -26 -23 -22 -31
-40 -31 -66 0 -70 37 -108 121 -121 20 -3 46 -17 60 -31 l24 -26 3 -1249 2
-1249 -1920 0 -1920 0 2 1249 3 1249 24 26 c14 14 40 28 60 31 84 13 121 51
121 121 0 26 -8 44 -29 65 -25 25 -37 29 -83 28 -29 0 -75 -8 -103 -17z"/>
</g>
</svg>
